<?xml version="1.0" encoding="utf-8"?>
<!-- Generator: Adobe Illustrator 19.1.0, SVG Export Plug-In . SVG Version: 6.00 Build 0)  -->
<!DOCTYPE svg PUBLIC "-//W3C//DTD SVG 1.1//EN" "http://www.w3.org/Graphics/SVG/1.1/DTD/svg11.dtd">
<svg version="1.1" id="Layer_1" xmlns="http://www.w3.org/2000/svg" xmlns:xlink="http://www.w3.org/1999/xlink" x="0px" y="0px"
	 width="20px" height="20px" viewBox="0 0 20 20" enable-background="new 0 0 20 20" xml:space="preserve">
<path d="M8,15c-3.9,0-7-3.1-7-7s3.1-7,7-7s7,3.1,7,7S11.9,15,8,15z M8,3C5.2,3,3,5.2,3,8s2.2,5,5,5s5-2.2,5-5S10.8,3,8,3z"/>
<path d="M17.3,18.7l-3-3c-0.4-0.4-0.4-1,0-1.4s1-0.4,1.4,0l3,3c0.4,0.4,0.4,1,0,1.4C18.3,19.1,17.7,19.1,17.3,18.7z"/>
</svg>
