<?xml version="1.0" encoding="utf-8"?>
<!-- Generator: Adobe Illustrator 19.1.0, SVG Export Plug-In . SVG Version: 6.00 Build 0)  -->
<!DOCTYPE svg PUBLIC "-//W3C//DTD SVG 1.1//EN" "http://www.w3.org/Graphics/SVG/1.1/DTD/svg11.dtd">
<svg version="1.1" id="Layer_1" xmlns="http://www.w3.org/2000/svg" xmlns:xlink="http://www.w3.org/1999/xlink" x="0px" y="0px"
	 width="20px" height="20px" viewBox="0 0 20 20" enable-background="new 0 0 20 20" xml:space="preserve">
<path d="M19,2h-3V0h-2v2H6V0H4v2H1C0.4,2,0,2.4,0,3v16c0,0.6,0.4,1,1,1h18c0.6,0,1-0.4,1-1V3C20,2.4,19.6,2,19,2z M18,18H2V4h16V18z
	"/>
<path d="M7.3,14.7l-2-2c-0.4-0.4-0.4-1,0-1.4s1-0.4,1.4,0L8,12.6l5.3-5.3c0.4-0.4,1-0.4,1.4,0s0.4,1,0,1.4l-6,6
	C8.3,15.1,7.7,15.1,7.3,14.7z"/>
</svg>
