<?xml version="1.0" encoding="utf-8"?>
<!-- Generator: Adobe Illustrator 19.1.0, SVG Export Plug-In . SVG Version: 6.00 Build 0)  -->
<!DOCTYPE svg PUBLIC "-//W3C//DTD SVG 1.1//EN" "http://www.w3.org/Graphics/SVG/1.1/DTD/svg11.dtd">
<svg version="1.1" id="Layer_1" xmlns="http://www.w3.org/2000/svg" xmlns:xlink="http://www.w3.org/1999/xlink" x="0px" y="0px"
	 width="20px" height="20px" viewBox="0 0 20 20" enable-background="new 0 0 20 20" xml:space="preserve">
<path d="M13,8H7C6.4,8,6,7.6,6,7s0.4-1,1-1h6c0.6,0,1,0.4,1,1S13.6,8,13,8z"/>
<path d="M20,11.7l-3-10C16.8,1.3,16.4,1,16,1H4C3.6,1,3.2,1.3,3,1.7l-3,10c0,0,0,0.2,0,0.3v6c0,0.6,0.4,1,1,1h18c0.6,0,1-0.4,1-1v-6
	C20,11.9,20,11.8,20,11.7z M4.7,3h10.5l2.4,8H13c-0.6,0-1,0.4-1,1v1H8v-1c0-0.6-0.4-1-1-1H2.3L4.7,3z M18,17H2v-4h4v1
	c0,0.6,0.4,1,1,1h6c0.6,0,1-0.4,1-1v-1h4V17z"/>
</svg>
