<?xml version="1.0" encoding="utf-8"?>
<!-- Generator: Adobe Illustrator 19.1.0, SVG Export Plug-In . SVG Version: 6.00 Build 0)  -->
<!DOCTYPE svg PUBLIC "-//W3C//DTD SVG 1.1//EN" "http://www.w3.org/Graphics/SVG/1.1/DTD/svg11.dtd">
<svg version="1.1" id="Layer_1" xmlns="http://www.w3.org/2000/svg" xmlns:xlink="http://www.w3.org/1999/xlink" x="0px" y="0px"
	 width="20px" height="20px" viewBox="0 0 20 20" enable-background="new 0 0 20 20" xml:space="preserve">
<path d="M9.7,19.9l-9-3C0.3,16.8,0,16.4,0,16V1c0-0.7,0.7-1.2,1.3-0.9L10,2.9l8.7-2.9C19.3-0.2,20,0.3,20,1v15
	c0,0.4-0.3,0.8-0.7,0.9l-9,3C10.1,20,9.9,20,9.7,19.9z M2,15.3l8,2.7l8-2.7V2.4l-7.7,2.6C10.1,5,9.9,5,9.7,4.9L2,2.4V15.3z"/>
<path d="M10,16c-0.6,0-1-0.4-1-1V8c0-0.6,0.4-1,1-1s1,0.4,1,1v7C11,15.6,10.6,16,10,16z"/>
</svg>
