<?xml version="1.0" encoding="utf-8"?>
<!-- Generator: Adobe Illustrator 19.1.0, SVG Export Plug-In . SVG Version: 6.00 Build 0)  -->
<!DOCTYPE svg PUBLIC "-//W3C//DTD SVG 1.1//EN" "http://www.w3.org/Graphics/SVG/1.1/DTD/svg11.dtd">
<svg version="1.1" id="Layer_1" xmlns="http://www.w3.org/2000/svg" xmlns:xlink="http://www.w3.org/1999/xlink" x="0px" y="0px"
	 width="20px" height="20px" viewBox="0 0 20 20" enable-background="new 0 0 20 20" xml:space="preserve">
<path d="M18,20H2c-0.6,0-1.1-0.6-1-1.2l2-12C3.1,6.4,3.5,6,4,6h12c0.5,0,0.9,0.4,1,0.8l2,12C19.1,19.4,18.6,20,18,20z M3.2,18h13.6
	L15.2,8H4.8L3.2,18z"/>
<path d="M14,5h-2V4c0-1.1-0.9-2-2-2S8,2.9,8,4v1H6V4c0-2.2,1.8-4,4-4s4,1.8,4,4V5z"/>
</svg>
