<?xml version="1.0" encoding="utf-8"?>
<!-- Generator: Adobe Illustrator 19.1.0, SVG Export Plug-In . SVG Version: 6.00 Build 0)  -->
<!DOCTYPE svg PUBLIC "-//W3C//DTD SVG 1.1//EN" "http://www.w3.org/Graphics/SVG/1.1/DTD/svg11.dtd">
<svg version="1.1" id="Layer_1" xmlns="http://www.w3.org/2000/svg" xmlns:xlink="http://www.w3.org/1999/xlink" x="0px" y="0px"
	 width="20px" height="20px" viewBox="0 0 20 20" enable-background="new 0 0 20 20" xml:space="preserve">
<path d="M19,0h-6c-0.6,0-1,0.4-1,1s0.4,1,1,1h3.6l-4.3,4.3c-0.4,0.4-0.4,1,0,1.4c0.4,0.4,1,0.4,1.4,0L18,3.4V7c0,0.6,0.4,1,1,1
	s1-0.4,1-1V1C20,0.4,19.6,0,19,0z"/>
<path d="M8,1c0-0.6-0.4-1-1-1H1C0.5,0,0,0.5,0,1v6c0,0.6,0.4,1,1,1s1-0.4,1-1V3.4l4.3,4.3C6.5,7.9,6.7,8,7,8s0.5-0.1,0.7-0.3
	c0.4-0.4,0.4-1,0-1.4L3.4,2H7C7.6,2,8,1.6,8,1z"/>
<path d="M20,13c0-0.6-0.4-1-1-1s-1,0.4-1,1v3.6l-4.3-4.3c-0.4-0.4-1-0.4-1.4,0s-0.4,1,0,1.4l4.3,4.3H13c-0.6,0-1,0.4-1,1s0.4,1,1,1
	h6c0.5,0,1-0.5,1-1V13z"/>
<path d="M7,18H3.4l4.3-4.3c0.4-0.4,0.4-1,0-1.4s-1-0.4-1.4,0L2,16.6V13c0-0.6-0.4-1-1-1s-1,0.4-1,1v6c0,0.6,0.4,1,1,1h6
	c0.6,0,1-0.4,1-1S7.6,18,7,18z"/>
</svg>
