<?xml version="1.0" encoding="utf-8"?>
<!-- Generator: Adobe Illustrator 19.1.0, SVG Export Plug-In . SVG Version: 6.00 Build 0)  -->
<!DOCTYPE svg PUBLIC "-//W3C//DTD SVG 1.1//EN" "http://www.w3.org/Graphics/SVG/1.1/DTD/svg11.dtd">
<svg version="1.1" id="Layer_1" xmlns="http://www.w3.org/2000/svg" xmlns:xlink="http://www.w3.org/1999/xlink" x="0px" y="0px"
	 width="20px" height="20px" viewBox="0 0 20 20" enable-background="new 0 0 20 20" xml:space="preserve">
<path d="M17,20H3c-0.6,0-1-0.4-1-1V7h2v11h12V7h2v12C18,19.6,17.6,20,17,20z"/>
<path d="M19,3h-6V1c0-0.6-0.4-1-1-1H8C7.4,0,7,0.4,7,1v2H1C0.4,3,0,3.4,0,4s0.4,1,1,1h18c0.6,0,1-0.4,1-1S19.6,3,19,3z"/>
</svg>
