<?xml version="1.0" encoding="utf-8"?>
<!-- Generator: Adobe Illustrator 19.1.0, SVG Export Plug-In . SVG Version: 6.00 Build 0)  -->
<!DOCTYPE svg PUBLIC "-//W3C//DTD SVG 1.1//EN" "http://www.w3.org/Graphics/SVG/1.1/DTD/svg11.dtd">
<svg version="1.1" id="Layer_1" xmlns="http://www.w3.org/2000/svg" xmlns:xlink="http://www.w3.org/1999/xlink" x="0px" y="0px"
	 width="20px" height="20px" viewBox="0 0 20 20" enable-background="new 0 0 20 20" xml:space="preserve">
<path d="M17,20H3c-0.6,0-1-0.4-1-1v-5c0-0.6,0.4-1,1-1s1,0.4,1,1v4h12v-4c0-0.6,0.4-1,1-1s1,0.4,1,1v5C18,19.6,17.6,20,17,20z"/>
<path d="M20,7c0-0.2-0.1-0.4-0.2-0.6l-4-6C15.6,0.2,15.3,0,15,0H5C4.7,0,4.4,0.2,4.2,0.4l-4,6C0.1,6.6,0,6.8,0,7c0,0,0,1.4,0,1.5
	C0,9.9,1.1,11,2.5,11C4.4,11,5,9,5,9c0.2,1.1,1.3,2,2.5,2C9.4,11,10,9,10,9c0.2,1.1,1.3,2,2.5,2c1.9,0,2.5-2,2.5-2
	c0.2,1.1,1.3,2,2.5,2c1.4,0,2.5-1.1,2.5-2.5C20,8.4,20,7,20,7z"/>
</svg>
