<?xml version="1.0" encoding="utf-8"?>
<!-- Generator: Adobe Illustrator 19.1.0, SVG Export Plug-In . SVG Version: 6.00 Build 0)  -->
<!DOCTYPE svg PUBLIC "-//W3C//DTD SVG 1.1//EN" "http://www.w3.org/Graphics/SVG/1.1/DTD/svg11.dtd">
<svg version="1.1" id="Layer_1" xmlns="http://www.w3.org/2000/svg" xmlns:xlink="http://www.w3.org/1999/xlink" x="0px" y="0px"
	 width="20px" height="20px" viewBox="0 0 20 20" enable-background="new 0 0 20 20" xml:space="preserve">
<path d="M10,20c-3.9,0-7-3.1-7-7s3.1-7,7-7s7,3.1,7,7S13.9,20,10,20z M10,8c-2.8,0-5,2.2-5,5s2.2,5,5,5s5-2.2,5-5S12.8,8,10,8z"/>
<path d="M14,5h-2V4c0-1.1-0.9-2-2-2S8,2.9,8,4v1H6V4c0-2.2,1.8-4,4-4s4,1.8,4,4V5z"/>
<path d="M12,12c0-1.1-0.9-2-2-2s-2,0.9-2,2c0,0.7,0.4,1.4,1,1.7V16h2v-2.3C11.6,13.4,12,12.7,12,12z"/>
</svg>
