<?xml version="1.0" encoding="utf-8"?>
<!-- Generator: Adobe Illustrator 19.1.0, SVG Export Plug-In . SVG Version: 6.00 Build 0)  -->
<!DOCTYPE svg PUBLIC "-//W3C//DTD SVG 1.1//EN" "http://www.w3.org/Graphics/SVG/1.1/DTD/svg11.dtd">
<svg version="1.1" id="Layer_1" xmlns="http://www.w3.org/2000/svg" xmlns:xlink="http://www.w3.org/1999/xlink" x="0px" y="0px"
	 width="20px" height="20px" viewBox="0 0 20 20" enable-background="new 0 0 20 20" xml:space="preserve">
<path d="M15,20H5c-1.7,0-3-1.3-3-3V3c0-1.7,1.3-3,3-3h10c1.7,0,3,1.3,3,3v14C18,18.7,16.7,20,15,20z M5,2C4.4,2,4,2.4,4,3v14
	c0,0.6,0.4,1,1,1h10c0.6,0,1-0.4,1-1V3c0-0.6-0.4-1-1-1H5z"/>
<circle cx="10" cy="14" r="2"/>
</svg>
