<?xml version="1.0" encoding="utf-8"?>
<!-- Generator: Adobe Illustrator 19.1.0, SVG Export Plug-In . SVG Version: 6.00 Build 0)  -->
<!DOCTYPE svg PUBLIC "-//W3C//DTD SVG 1.1//EN" "http://www.w3.org/Graphics/SVG/1.1/DTD/svg11.dtd">
<svg version="1.1" id="Layer_1" xmlns="http://www.w3.org/2000/svg" xmlns:xlink="http://www.w3.org/1999/xlink" x="0px" y="0px"
	 width="20px" height="20px" viewBox="0 0 20 20" enable-background="new 0 0 20 20" xml:space="preserve">
<path d="M19,19H1c-0.6,0-1-0.4-1-1v-5h2v4h16v-4h2v5C20,18.6,19.6,19,19,19z"/>
<path d="M15.7,6.3l-5-5c-0.4-0.4-1-0.4-1.4,0l-5,5c-0.4,0.4-0.4,1,0,1.4s1,0.4,1.4,0L9,4.4V13c0,0.6,0.4,1,1,1s1-0.4,1-1V4.4
	l3.3,3.3C14.5,7.9,14.7,8,15,8s0.5-0.1,0.7-0.3C16.1,7.3,16.1,6.7,15.7,6.3z"/>
</svg>
