<?xml version="1.0" encoding="utf-8"?>
<!-- Generator: Adobe Illustrator 19.1.0, SVG Export Plug-In . SVG Version: 6.00 Build 0)  -->
<!DOCTYPE svg PUBLIC "-//W3C//DTD SVG 1.1//EN" "http://www.w3.org/Graphics/SVG/1.1/DTD/svg11.dtd">
<svg version="1.1" id="Layer_1" xmlns="http://www.w3.org/2000/svg" xmlns:xlink="http://www.w3.org/1999/xlink" x="0px" y="0px"
	 width="20px" height="20px" viewBox="0 0 20 20" enable-background="new 0 0 20 20" xml:space="preserve">
<path d="M9.2,18.6l-9-11C0,7.3-0.1,6.8,0.1,6.5l3-5C3.3,1.2,3.6,1,4,1h12c0.4,0,0.7,0.2,0.9,0.5l3,5c0.2,0.4,0.2,0.8-0.1,1.1l-9,11
	C10.4,19.1,9.6,19.1,9.2,18.6z M2.2,6.9l7.8,9.5l7.8-9.5L15.4,3H4.6L2.2,6.9z"/>
<path d="M15,8H5C4.4,8,4,7.6,4,7s0.4-1,1-1h10c0.6,0,1,0.4,1,1S15.6,8,15,8z"/>
</svg>
