<?xml version="1.0" encoding="utf-8"?>
<!-- Generator: Adobe Illustrator 19.1.0, SVG Export Plug-In . SVG Version: 6.00 Build 0)  -->
<!DOCTYPE svg PUBLIC "-//W3C//DTD SVG 1.1//EN" "http://www.w3.org/Graphics/SVG/1.1/DTD/svg11.dtd">
<svg version="1.1" id="Layer_1" xmlns="http://www.w3.org/2000/svg" xmlns:xlink="http://www.w3.org/1999/xlink" x="0px" y="0px"
	 width="20px" height="20px" viewBox="0 0 20 20" enable-background="new 0 0 20 20" xml:space="preserve">
<path d="M19,5H6C5.4,5,5,4.6,5,4s0.4-1,1-1h13c0.6,0,1,0.4,1,1S19.6,5,19,5z"/>
<path d="M10,11H6c-0.6,0-1-0.4-1-1s0.4-1,1-1h4c0.6,0,1,0.4,1,1S10.6,11,10,11z"/>
<path d="M19,17H6c-0.6,0-1-0.4-1-1s0.4-1,1-1h13c0.6,0,1,0.4,1,1S19.6,17,19,17z"/>
<path d="M2,5H1C0.4,5,0,4.6,0,4s0.4-1,1-1h1c0.6,0,1,0.4,1,1S2.6,5,2,5z"/>
<path d="M2,11H1c-0.6,0-1-0.4-1-1s0.4-1,1-1h1c0.6,0,1,0.4,1,1S2.6,11,2,11z"/>
<path d="M2,17H1c-0.6,0-1-0.4-1-1s0.4-1,1-1h1c0.6,0,1,0.4,1,1S2.6,17,2,17z"/>
</svg>
