<?xml version="1.0" encoding="utf-8"?>
<!-- Generator: Adobe Illustrator 19.1.0, SVG Export Plug-In . SVG Version: 6.00 Build 0)  -->
<!DOCTYPE svg PUBLIC "-//W3C//DTD SVG 1.1//EN" "http://www.w3.org/Graphics/SVG/1.1/DTD/svg11.dtd">
<svg version="1.1" id="Layer_1" xmlns="http://www.w3.org/2000/svg" xmlns:xlink="http://www.w3.org/1999/xlink" x="0px" y="0px"
	 width="20px" height="20px" viewBox="0 0 20 20" enable-background="new 0 0 20 20" xml:space="preserve">
<path d="M10,20C4.5,20,0,15.5,0,10S4.5,0,10,0s10,4.5,10,10S15.5,20,10,20z M10,2c-4.4,0-8,3.6-8,8s3.6,8,8,8s8-3.6,8-8S14.4,2,10,2
	z"/>
<path d="M13.8,12l-4-1C9.3,10.9,9,10.5,9,10V5c0-0.6,0.4-1,1-1s1,0.4,1,1v4.2l3.2,0.8c0.5,0.1,0.9,0.7,0.7,1.2
	C14.8,11.8,14.3,12.1,13.8,12z"/>
</svg>
