<?xml version="1.0" encoding="utf-8"?>
<!-- Generator: Adobe Illustrator 19.1.0, SVG Export Plug-In . SVG Version: 6.00 Build 0)  -->
<!DOCTYPE svg PUBLIC "-//W3C//DTD SVG 1.1//EN" "http://www.w3.org/Graphics/SVG/1.1/DTD/svg11.dtd">
<svg version="1.1" id="Layer_1" xmlns="http://www.w3.org/2000/svg" xmlns:xlink="http://www.w3.org/1999/xlink" x="0px" y="0px"
	 width="20px" height="20px" viewBox="0 0 20 20" enable-background="new 0 0 20 20" xml:space="preserve">
<path d="M9.3,19.7C8.5,18.9,2,12.2,2,8c0-4.4,3.6-8,8-8s8,3.6,8,8c0,4.2-6.5,10.9-7.3,11.7C10.3,20.1,9.7,20.1,9.3,19.7z M10,2
	C6.7,2,4,4.7,4,8c0,2.5,3.8,7.2,6,9.5c2.2-2.3,6-7,6-9.5C16,4.7,13.3,2,10,2z"/>
<circle cx="10" cy="8" r="2"/>
</svg>
