<?xml version="1.0" encoding="utf-8"?>
<!-- Generator: Adobe Illustrator 19.1.0, SVG Export Plug-In . SVG Version: 6.00 Build 0)  -->
<!DOCTYPE svg PUBLIC "-//W3C//DTD SVG 1.1//EN" "http://www.w3.org/Graphics/SVG/1.1/DTD/svg11.dtd">
<svg version="1.1" id="Layer_1" xmlns="http://www.w3.org/2000/svg" xmlns:xlink="http://www.w3.org/1999/xlink" x="0px" y="0px"
	 width="20px" height="20px" viewBox="0 0 20 20" enable-background="new 0 0 20 20" xml:space="preserve">
<path d="M19,4h-3V1c0-0.6-0.4-1-1-1H3C1.3,0,0,1.3,0,3v14c0,1.7,1.3,3,3,3h16c0.6,0,1-0.4,1-1V5C20,4.4,19.6,4,19,4z M2,3
	c0-0.6,0.4-1,1-1h11v2H2V3z M18,18H3c-0.6,0-1-0.4-1-1V6h16V18z"/>
<circle cx="14" cy="12" r="2"/>
</svg>
