<?xml version="1.0" encoding="utf-8"?>
<!-- Generator: Adobe Illustrator 19.1.0, SVG Export Plug-In . SVG Version: 6.00 Build 0)  -->
<!DOCTYPE svg PUBLIC "-//W3C//DTD SVG 1.1//EN" "http://www.w3.org/Graphics/SVG/1.1/DTD/svg11.dtd">
<svg version="1.1" id="Layer_1" xmlns="http://www.w3.org/2000/svg" xmlns:xlink="http://www.w3.org/1999/xlink" x="0px" y="0px"
	 width="20px" height="20px" viewBox="0 0 20 20" enable-background="new 0 0 20 20" xml:space="preserve">
<path d="M10,0C5.2,0,0,1.3,0,4s5.2,4,10,4s10-1.3,10-4S14.8,0,10,0z"/>
<path d="M19,8c-0.6,0-1,0.4-1,1v1c0,0.5-2.8,2-8,2s-8-1.5-8-2V9c0-0.6-0.4-1-1-1S0,8.4,0,9v7c0,2.7,5.2,4,10,4s10-1.3,10-4V9
	C20,8.4,19.6,8,19,8z M10,18c-5.2,0-8-1.5-8-2v-3.5c1.9,1,5,1.5,8,1.5s6.1-0.5,8-1.5V16C18,16.5,15.2,18,10,18z"/>
</svg>
