<?xml version="1.0" encoding="utf-8"?>
<!-- Generator: Adobe Illustrator 19.1.0, SVG Export Plug-In . SVG Version: 6.00 Build 0)  -->
<!DOCTYPE svg PUBLIC "-//W3C//DTD SVG 1.1//EN" "http://www.w3.org/Graphics/SVG/1.1/DTD/svg11.dtd">
<svg version="1.1" id="Layer_1" xmlns="http://www.w3.org/2000/svg" xmlns:xlink="http://www.w3.org/1999/xlink" x="0px" y="0px"
	 width="20px" height="20px" viewBox="0 0 20 20" enable-background="new 0 0 20 20" xml:space="preserve">
<circle cx="10" cy="11" r="4"/>
<path d="M19,19H1c-0.6,0-1-0.4-1-1V5c0-0.6,0.4-1,1-1h3.6l2.7-2.7C7.5,1.1,7.7,1,8,1h4c0.3,0,0.5,0.1,0.7,0.3L15.4,4H19
	c0.6,0,1,0.4,1,1v13C20,18.6,19.6,19,19,19z M2,17h16V6h-3c-0.3,0-0.5-0.1-0.7-0.3L11.6,3H8.4L5.7,5.7C5.5,5.9,5.3,6,5,6H2V17z"/>
</svg>
