<?xml version="1.0" encoding="utf-8"?>
<!-- Generator: Adobe Illustrator 19.1.0, SVG Export Plug-In . SVG Version: 6.00 Build 0)  -->
<!DOCTYPE svg PUBLIC "-//W3C//DTD SVG 1.1//EN" "http://www.w3.org/Graphics/SVG/1.1/DTD/svg11.dtd">
<svg version="1.1" id="Layer_1" xmlns="http://www.w3.org/2000/svg" xmlns:xlink="http://www.w3.org/1999/xlink" x="0px" y="0px"
	 width="20px" height="20px" viewBox="0 0 20 20" enable-background="new 0 0 20 20" xml:space="preserve">
<path d="M10,12L10,12c-2.2,0-4-1.8-4-4V4c0-2.2,1.8-4,4-4h0c2.2,0,4,1.8,4,4v4C14,10.2,12.2,12,10,12z"/>
<path d="M17.4,10.1c-0.5-0.3-1.1-0.1-1.4,0.4C14.8,12.7,12.5,14,10,14c-2.5,0-4.8-1.3-6.1-3.5C3.7,10,3,9.9,2.6,10.1
	c-0.5,0.3-0.6,0.9-0.4,1.4c1.4,2.5,4,4.1,6.8,4.4V18H6c-0.6,0-1,0.4-1,1s0.4,1,1,1h8c0.6,0,1-0.4,1-1s-0.4-1-1-1h-3v-2.1
	c2.8-0.3,5.4-1.9,6.8-4.4C18.1,11,17.9,10.4,17.4,10.1z"/>
</svg>
