<?xml version="1.0" encoding="utf-8"?>
<!-- Generator: Adobe Illustrator 19.1.0, SVG Export Plug-In . SVG Version: 6.00 Build 0)  -->
<!DOCTYPE svg PUBLIC "-//W3C//DTD SVG 1.1//EN" "http://www.w3.org/Graphics/SVG/1.1/DTD/svg11.dtd">
<svg version="1.1" id="Layer_1" xmlns="http://www.w3.org/2000/svg" xmlns:xlink="http://www.w3.org/1999/xlink" x="0px" y="0px"
	 width="20px" height="20px" viewBox="0 0 20 20" enable-background="new 0 0 20 20" xml:space="preserve">
<path d="M19,7c-0.6,0-1-0.4-1-1c0-2.2-1.8-4-4-4c-1.3,0-2.4,0.6-3.2,1.6c-0.4,0.5-1.2,0.5-1.6,0C8.4,2.6,7.3,2,6,2C3.8,2,2,3.8,2,6
	c0,0.6-0.4,1-1,1S0,6.6,0,6c0-3.3,2.7-6,6-6c1.5,0,2.9,0.6,4,1.5c1.1-1,2.5-1.5,4-1.5c3.3,0,6,2.7,6,6C20,6.6,19.6,7,19,7z"/>
<path d="M9.3,19.7c-0.1-0.1-3.2-2.8-5.7-6.1c-0.3-0.4-0.3-1.1,0.2-1.4c0.4-0.3,1.1-0.3,1.4,0.2c1.8,2.3,3.8,4.3,4.8,5.3
	c1-1,3.1-3,4.9-5.3c0.3-0.4,1-0.5,1.4-0.2c0.4,0.3,0.5,1,0.2,1.4c-2.6,3.3-5.6,6-5.8,6.1C10.3,20.1,9.7,20.1,9.3,19.7z"/>
<path d="M11,14C11,14,11,14,11,14c-0.4,0-0.7-0.2-0.9-0.6L7.9,9l-1,1.6C6.6,10.8,6.3,11,6,11H1c-0.6,0-1-0.4-1-1s0.4-1,1-1h4.5
	l1.7-2.6C7.4,6.1,7.7,6,8.1,6c0.4,0,0.7,0.2,0.8,0.6l2.2,4.5l1-1.6C12.4,9.2,12.7,9,13,9h6c0.6,0,1,0.4,1,1s-0.4,1-1,1h-5.5
	l-1.7,2.6C11.6,13.8,11.3,14,11,14z"/>
</svg>
