<?xml version="1.0" encoding="utf-8"?>
<!-- Generator: Adobe Illustrator 19.1.0, SVG Export Plug-In . SVG Version: 6.00 Build 0)  -->
<!DOCTYPE svg PUBLIC "-//W3C//DTD SVG 1.1//EN" "http://www.w3.org/Graphics/SVG/1.1/DTD/svg11.dtd">
<svg version="1.1" id="Layer_1" xmlns="http://www.w3.org/2000/svg" xmlns:xlink="http://www.w3.org/1999/xlink" x="0px" y="0px"
	 width="20px" height="20px" viewBox="0 0 20 20" enable-background="new 0 0 20 20" xml:space="preserve">
<path d="M19,20H1c-0.6,0-1-0.4-1-1V1c0-0.6,0.4-1,1-1h18c0.6,0,1,0.4,1,1v18C20,19.6,19.6,20,19,20z M2,18h16V2H2V18z"/>
<path d="M3.3,15.7c-0.4-0.4-0.4-1,0-1.4l4-4c0.4-0.4,0.9-0.4,1.3-0.1l3.3,2.5l3.4-3.4c0.4-0.4,1-0.4,1.4,0s0.4,1,0,1.4l-4,4
	c-0.4,0.4-0.9,0.4-1.3,0.1l-3.3-2.5l-3.4,3.4C4.3,16.1,3.7,16.1,3.3,15.7z"/>
<circle cx="11" cy="6" r="2"/>
</svg>
