<?xml version="1.0" encoding="utf-8"?>
<!-- Generator: Adobe Illustrator 19.1.0, SVG Export Plug-In . SVG Version: 6.00 Build 0)  -->
<!DOCTYPE svg PUBLIC "-//W3C//DTD SVG 1.1//EN" "http://www.w3.org/Graphics/SVG/1.1/DTD/svg11.dtd">
<svg version="1.1" id="Layer_1" xmlns="http://www.w3.org/2000/svg" xmlns:xlink="http://www.w3.org/1999/xlink" x="0px" y="0px"
	 width="20px" height="20px" viewBox="0 0 20 20" enable-background="new 0 0 20 20" xml:space="preserve">
<path d="M19,18H1c-0.6,0-1-0.4-1-1V3c0-0.6,0.4-1,1-1h18c0.6,0,1,0.4,1,1v14C20,17.6,19.6,18,19,18z M2,16h16V4H2V16z"/>
<path d="M10,12c-0.2,0-0.4-0.1-0.6-0.2l-5-4c-0.4-0.3-0.5-1-0.2-1.4c0.3-0.4,1-0.5,1.4-0.2L10,9.7l4.4-3.5c0.4-0.3,1.1-0.3,1.4,0.2
	c0.3,0.4,0.3,1.1-0.2,1.4l-5,4C10.4,11.9,10.2,12,10,12z"/>
</svg>
