<?xml version="1.0" encoding="utf-8"?>
<!-- Generator: Adobe Illustrator 19.1.0, SVG Export Plug-In . SVG Version: 6.00 Build 0)  -->
<!DOCTYPE svg PUBLIC "-//W3C//DTD SVG 1.1//EN" "http://www.w3.org/Graphics/SVG/1.1/DTD/svg11.dtd">
<svg version="1.1" id="Layer_1" xmlns="http://www.w3.org/2000/svg" xmlns:xlink="http://www.w3.org/1999/xlink" x="0px" y="0px"
	 width="20px" height="20px" viewBox="0 0 20 20" enable-background="new 0 0 20 20" xml:space="preserve">
<rect x="5" y="11" width="10" height="9"/>
<path d="M19,4h-2V1c0-0.6-0.4-1-1-1H4C3.4,0,3,0.4,3,1v3H1C0.4,4,0,4.4,0,5v10c0,0.6,0.4,1,1,1h3v-2H2V6h16v8h-2v2h3
	c0.6,0,1-0.4,1-1V5C20,4.4,19.6,4,19,4z M5,2h10v2H5V2z"/>
</svg>
