<?xml version="1.0" encoding="utf-8"?>
<!-- Generator: Adobe Illustrator 19.1.0, SVG Export Plug-In . SVG Version: 6.00 Build 0)  -->
<!DOCTYPE svg PUBLIC "-//W3C//DTD SVG 1.1//EN" "http://www.w3.org/Graphics/SVG/1.1/DTD/svg11.dtd">
<svg version="1.1" id="Layer_1" xmlns="http://www.w3.org/2000/svg" xmlns:xlink="http://www.w3.org/1999/xlink" x="0px" y="0px"
	 width="20px" height="20px" viewBox="0 0 20 20" enable-background="new 0 0 20 20" xml:space="preserve">
<path d="M18.4,3.1l-8-3C10.1,0,9.9,0,9.6,0.1l-8,3C1.3,3.2,1,3.6,1,4s0.3,0.8,0.6,0.9l8,3C9.8,8,9.9,8,10,8s0.2,0,0.4-0.1l8-3
	C18.7,4.8,19,4.4,19,4S18.7,3.2,18.4,3.1z"/>
<path d="M10,20c-0.1,0-0.2,0-0.4-0.1l-8-3C1.3,16.8,1,16.4,1,16V8c0-0.6,0.4-1,1-1s1,0.4,1,1v7.3l7,2.6l7-2.6V8c0-0.6,0.4-1,1-1
	s1,0.4,1,1v8c0,0.4-0.3,0.8-0.6,0.9l-8,3C10.2,20,10.1,20,10,20z"/>
</svg>
