<?xml version="1.0" encoding="utf-8"?>
<!-- Generator: Adobe Illustrator 19.1.0, SVG Export Plug-In . SVG Version: 6.00 Build 0)  -->
<!DOCTYPE svg PUBLIC "-//W3C//DTD SVG 1.1//EN" "http://www.w3.org/Graphics/SVG/1.1/DTD/svg11.dtd">
<svg version="1.1" id="Layer_1" xmlns="http://www.w3.org/2000/svg" xmlns:xlink="http://www.w3.org/1999/xlink" x="0px" y="0px"
	 width="20px" height="20px" viewBox="0 0 20 20" enable-background="new 0 0 20 20" xml:space="preserve">
<rect x="8" y="13" width="4" height="7"/>
<path d="M19.7,9.3l-9-9c-0.4-0.4-1-0.4-1.4,0l-9,9c-0.4,0.4-0.4,1,0,1.4s1,0.4,1.4,0L2,10.4V19c0,0.6,0.4,1,1,1h3v-2H4V8.4l6-6l6,6
	V18h-2v2h3c0.6,0,1-0.4,1-1v-8.6l0.3,0.3c0.4,0.4,1,0.4,1.4,0C20.1,10.3,20.1,9.7,19.7,9.3z"/>
</svg>
