<?xml version="1.0" encoding="utf-8"?>
<!-- Generator: Adobe Illustrator 19.1.0, SVG Export Plug-In . SVG Version: 6.00 Build 0)  -->
<!DOCTYPE svg PUBLIC "-//W3C//DTD SVG 1.1//EN" "http://www.w3.org/Graphics/SVG/1.1/DTD/svg11.dtd">
<svg version="1.1" id="Layer_1" xmlns="http://www.w3.org/2000/svg" xmlns:xlink="http://www.w3.org/1999/xlink" x="0px" y="0px"
	 width="20px" height="20px" viewBox="0 0 20 20" enable-background="new 0 0 20 20" xml:space="preserve">
<path d="M5,19H1c-0.6,0-1-0.4-1-1v-7c0-0.6,0.4-1,1-1h4c0.6,0,1,0.4,1,1v7C6,18.6,5.6,19,5,19z M2,17h2v-5H2V17z"/>
<path d="M11,6H9C8.4,6,8,6.4,8,7v11c0,0.6,0.4,1,1,1h2c0.6,0,1-0.4,1-1V7C12,6.4,11.6,6,11,6z"/>
<path d="M19,19h-4c-0.6,0-1-0.4-1-1V2c0-0.6,0.4-1,1-1h4c0.6,0,1,0.4,1,1v16C20,18.6,19.6,19,19,19z M16,17h2V3h-2V17z"/>
</svg>
