<?xml version="1.0" encoding="utf-8"?>
<!-- Generator: Adobe Illustrator 19.1.0, SVG Export Plug-In . SVG Version: 6.00 Build 0)  -->
<!DOCTYPE svg PUBLIC "-//W3C//DTD SVG 1.1//EN" "http://www.w3.org/Graphics/SVG/1.1/DTD/svg11.dtd">
<svg version="1.1" id="Layer_1" xmlns="http://www.w3.org/2000/svg" xmlns:xlink="http://www.w3.org/1999/xlink" x="0px" y="0px"
	 width="20px" height="20px" viewBox="0 0 20 20" enable-background="new 0 0 20 20" xml:space="preserve">
<path d="M17,20H3c-0.6,0-1-0.4-1-1V1c0-0.6,0.4-1,1-1h10c0.3,0,0.5,0.1,0.7,0.3l4,4C17.9,4.5,18,4.7,18,5v14C18,19.6,17.6,20,17,20z
	 M4,18h12V5.4L12.6,2H4V18z"/>
<path d="M14.7,6.3l-3-3C11.4,3,11,2.9,10.6,3.1C10.2,3.2,10,3.6,10,4v4h4c0.4,0,0.8-0.2,0.9-0.6C15.1,7,15,6.6,14.7,6.3z"/>
</svg>
