<?xml version="1.0" encoding="utf-8"?>
<!-- Generator: Adobe Illustrator 19.1.0, SVG Export Plug-In . SVG Version: 6.00 Build 0)  -->
<!DOCTYPE svg PUBLIC "-//W3C//DTD SVG 1.1//EN" "http://www.w3.org/Graphics/SVG/1.1/DTD/svg11.dtd">
<svg version="1.1" id="Layer_1" xmlns="http://www.w3.org/2000/svg" xmlns:xlink="http://www.w3.org/1999/xlink" x="0px" y="0px"
	 width="20px" height="20px" viewBox="0 0 20 20" enable-background="new 0 0 20 20" xml:space="preserve">
<path d="M9.3,19.7L5.6,16H1c-0.6,0-1-0.4-1-1V1c0-0.6,0.4-1,1-1h18c0.6,0,1,0.4,1,1v14c0,0.6-0.4,1-1,1h-4.6l-3.7,3.7
	C10.3,20.1,9.7,20.1,9.3,19.7z M2,14h4c0.3,0,0.5,0.1,0.7,0.3l3.3,3.3l3.3-3.3c0.2-0.2,0.4-0.3,0.7-0.3h4V2H2V14z"/>
<path d="M14,7H6C5.4,7,5,6.6,5,6s0.4-1,1-1h8c0.6,0,1,0.4,1,1S14.6,7,14,7z"/>
<path d="M14,11H6c-0.6,0-1-0.4-1-1s0.4-1,1-1h8c0.6,0,1,0.4,1,1S14.6,11,14,11z"/>
</svg>
