<?xml version="1.0" encoding="utf-8"?>
<!-- Generator: Adobe Illustrator 19.1.0, SVG Export Plug-In . SVG Version: 6.00 Build 0)  -->
<!DOCTYPE svg PUBLIC "-//W3C//DTD SVG 1.1//EN" "http://www.w3.org/Graphics/SVG/1.1/DTD/svg11.dtd">
<svg version="1.1" id="Layer_1" xmlns="http://www.w3.org/2000/svg" xmlns:xlink="http://www.w3.org/1999/xlink" x="0px" y="0px"
	 width="20px" height="20px" viewBox="0 0 20 20" enable-background="new 0 0 20 20" xml:space="preserve">
<path d="M10,10L10,10c-2.2,0-4-1.8-4-4V4c0-2.2,1.8-4,4-4h0c2.2,0,4,1.8,4,4v2C14,8.2,12.2,10,10,10z"/>
<path d="M18,20H2c-0.6,0-1-0.4-1-1v-1c0-3.3,2.7-6,6-6h6c3.3,0,6,2.7,6,6v1C19,19.6,18.6,20,18,20z M3,18h14c0-2.2-1.8-4-4-4H7
	C4.8,14,3,15.8,3,18z"/>
</svg>
