<?xml version="1.0" encoding="utf-8"?>
<!-- Generator: Adobe Illustrator 19.1.0, SVG Export Plug-In . SVG Version: 6.00 Build 0)  -->
<!DOCTYPE svg PUBLIC "-//W3C//DTD SVG 1.1//EN" "http://www.w3.org/Graphics/SVG/1.1/DTD/svg11.dtd">
<svg version="1.1" id="Layer_1" xmlns="http://www.w3.org/2000/svg" xmlns:xlink="http://www.w3.org/1999/xlink" x="0px" y="0px"
	 width="20px" height="20px" viewBox="0 0 20 20" enable-background="new 0 0 20 20" xml:space="preserve">
<path d="M17,20c-0.2,0-0.3,0-0.5-0.1L10,16.2l-6.5,3.7c-0.3,0.2-0.7,0.2-1,0C2.2,19.7,2,19.4,2,19V1c0-0.6,0.4-1,1-1h14
	c0.6,0,1,0.4,1,1v18c0,0.4-0.2,0.7-0.5,0.9C17.3,20,17.2,20,17,20z M10,14c0.2,0,0.3,0,0.5,0.1l5.5,3.1V2H4v15.3l5.5-3.1
	C9.7,14,9.8,14,10,14z"/>
<polygon points="14,7 11,7 11,4 9,4 9,7 6,7 6,9 9,9 9,12 11,12 11,9 14,9 "/>
</svg>
